<svg width="215" height="37" viewBox="0 0 215 37" fill="none" xmlns="http://www.w3.org/2000/svg">
<g id="lp_logo 1" clip-path="url(#clip0_28_0)">
<g id="Layer 2">
<g id="Layer 1">
<path id="Vector" fill-rule="evenodd" clip-rule="evenodd" d="M189.547 16.5781L193.802 12.3102L189.563 8.05811L181.073 16.5781H189.547Z" fill="url(#paint0_linear_28_0)"/>
<path id="Vector_2" fill-rule="evenodd" clip-rule="evenodd" d="M181.533 6.08704V0.0759277H209.014L214.997 6.08704H181.533Z" fill="url(#paint1_linear_28_0)"/>
<path id="Vector_3" fill-rule="evenodd" clip-rule="evenodd" d="M209.007 33.5357H214.997V6.14714L209.007 0.0727539V33.5357Z" fill="url(#paint2_linear_28_0)"/>
<path id="Vector_4" fill-rule="evenodd" clip-rule="evenodd" d="M214.997 33.5358L202.838 21.3364L198.599 25.5853L206.525 33.5358H214.997Z" fill="url(#paint3_linear_28_0)"/>
<path id="Vector_5" fill-rule="evenodd" clip-rule="evenodd" d="M190.677 33.5358L202.835 21.3364L207.074 25.5853L199.148 33.5358H190.677Z" fill="url(#paint4_linear_28_0)"/>
<path id="Vector_6" fill-rule="evenodd" clip-rule="evenodd" d="M181.533 0L193.802 12.307L189.563 16.559L181.533 8.50098V0Z" fill="url(#paint5_linear_28_0)"/>
<path id="Vector_7" d="M6.87251 17.8309H13.335V33.5737H16.2713L15.978 31.5331V15.6511H3.87623L4.25786 18.1568L4.10016 21.0453C4.01185 22.874 3.90777 24.459 3.78477 25.7909C3.69931 26.8978 3.54233 27.9979 3.31483 29.0844C3.19851 29.7762 2.92789 30.4326 2.52318 31.0048C2.36427 31.2092 2.15945 31.3731 1.92541 31.4831C1.69137 31.593 1.43474 31.646 1.17643 31.6375C0.973858 31.6383 0.771486 31.6246 0.570869 31.5964C0.3775 31.5728 0.186509 31.5326 0 31.4762L0.264934 33.7383C0.49584 33.7957 0.729545 33.8411 0.965116 33.8743C1.20962 33.9091 1.4562 33.927 1.70315 33.9281C2.47607 33.9537 3.2371 33.7321 3.87623 33.2953C4.48846 32.8365 4.96841 32.2229 5.26713 31.5173C5.65076 30.636 5.92408 29.7104 6.08086 28.7617C6.28121 27.5864 6.42122 26.4016 6.50034 25.212C6.58865 23.9117 6.6675 22.5228 6.72742 21.0485L6.87251 17.8309Z" fill="#1D1D1B"/>
<path id="Vector_8" d="M31.4451 22.7251V33.6559H33.7002L33.4762 32.0898V19.9031H31.5145L24.1184 29.7676L23.5097 30.8338V19.9031H21.1884L21.4817 21.8266V33.6559H23.4434L30.8364 23.7913L31.4451 22.7251Z" fill="#1D1D1B"/>
<path id="Vector_9" d="M36.5167 37.0158H38.57L38.592 33.6717H48.218L48.2558 37.0158H50.309L50.2617 32.0012H48.5712V19.9031H39.4247L39.718 21.8266L39.6959 23.206C39.6959 24.3861 39.6644 25.4839 39.5792 26.5058C39.5012 27.4777 39.3344 28.4403 39.0809 29.3817C38.828 30.2932 38.4591 31.1684 37.9833 31.9854H36.564L36.5167 37.0158ZM41.7239 23.2218V21.5735H46.5274V31.9854H40.2384C40.6492 31.1554 40.9666 30.2821 41.1846 29.3817C41.4101 28.4365 41.5598 27.4749 41.6325 26.5058C41.6924 25.4839 41.7302 24.3861 41.7239 23.206V23.2218Z" fill="#1D1D1B"/>
<path id="Vector_10" d="M54.078 33.6559H61.2943L61.7421 32.1088H56.1091V27.3853H60.367L60.818 25.8383H56.1091V21.4501H61.4961V19.9031H53.7847L54.078 21.8266V33.6559Z" fill="#1D1D1B"/>
<path id="Vector_11" d="M65.4165 19.9031L65.7098 21.8266V33.6559H67.9649L67.741 32.0898V28.5148H68.8449C69.6101 28.5223 70.3713 28.4015 71.0968 28.1573C71.7446 27.9415 72.3482 27.6104 72.8788 27.1797C73.3653 26.791 73.766 26.3051 74.0552 25.7528C74.3326 25.2262 74.4787 24.64 74.481 24.0444C74.4886 23.4087 74.347 22.7802 74.0679 22.2094C73.8103 21.6982 73.4365 21.255 72.9766 20.9155C72.5066 20.571 71.9789 20.3138 71.4185 20.1562C70.8309 19.9878 70.2224 19.9036 69.6113 19.9062L65.4165 19.9031ZM67.741 26.9677V21.4501H69.2044C69.6084 21.4477 70.0108 21.502 70.3998 21.6115C70.7594 21.7142 71.0979 21.8803 71.3996 22.1019C71.6862 22.316 71.9203 22.5931 72.084 22.9118C72.2569 23.2627 72.3445 23.6498 72.3395 24.0413C72.3432 24.46 72.256 24.8746 72.084 25.2561C71.9237 25.6083 71.6904 25.9222 71.3996 26.1768C71.1074 26.4352 70.7678 26.634 70.3998 26.7621C70.0164 26.9001 69.6118 26.9697 69.2044 26.9677H67.741Z" fill="#1D1D1B"/>
<path id="Vector_12" d="M97.3977 15.6511H81.3882L81.7698 18.1568V33.5737H84.7093L84.416 31.5331V17.8309H94.7547V33.5737H97.6911L97.3977 31.5331V15.6511Z" fill="#1D1D1B"/>
<path id="Vector_13" d="M108.084 19.65C107.341 19.6501 106.603 19.7741 105.901 20.017C105.228 20.255 104.599 20.6012 104.037 21.042C103.477 21.4857 102.99 22.0141 102.592 22.6081C102.178 23.2202 101.858 23.8923 101.646 24.6012C101.427 25.3448 101.318 26.1164 101.321 26.8918C101.319 27.6388 101.412 28.3831 101.599 29.1064C101.774 29.7849 102.047 30.4341 102.41 31.0331C102.763 31.6112 103.211 32.1256 103.734 32.5549C104.271 32.9911 104.879 33.3294 105.532 33.5546C106.26 33.7986 107.023 33.9194 107.79 33.9121C108.536 33.9143 109.277 33.7913 109.982 33.5483C110.657 33.3098 111.289 32.9625 111.853 32.5201C112.419 32.0726 112.912 31.5389 113.313 30.9382C113.726 30.3229 114.045 29.6489 114.259 28.9387C114.484 28.1885 114.597 27.4093 114.596 26.626C114.606 25.6814 114.469 24.741 114.19 23.8388C113.937 23.0248 113.522 22.2712 112.969 21.6241C112.413 20.9858 111.718 20.4845 110.938 20.1593C110.03 19.7935 109.059 19.6128 108.08 19.6278L108.084 19.65ZM103.529 26.7779C103.526 26.0355 103.632 25.2967 103.845 24.5854C104.037 23.9334 104.344 23.3215 104.753 22.7789C105.128 22.2776 105.607 21.8633 106.156 21.564C106.718 21.275 107.34 21.1243 107.972 21.1243C108.603 21.1243 109.225 21.275 109.787 21.564C110.333 21.8644 110.808 22.2786 111.181 22.7789C111.58 23.3201 111.882 23.9272 112.073 24.5727C112.494 26.005 112.494 27.5286 112.073 28.9609C111.882 29.6064 111.58 30.2135 111.181 30.7547C110.808 31.255 110.333 31.6692 109.787 31.9696C109.225 32.2586 108.603 32.4093 107.972 32.4093C107.34 32.4093 106.718 32.2586 106.156 31.9696C105.607 31.6703 105.128 31.256 104.753 30.7547C104.348 30.2155 104.043 29.608 103.851 28.9609C103.637 28.253 103.529 27.5174 103.529 26.7779Z" fill="#1D1D1B"/>
<path id="Vector_14" d="M128.032 22.7251V33.6559H130.284L130.06 32.0898V19.9031H128.099L120.706 29.7676L120.097 30.8338V19.9031H117.776L118.069 21.8266V33.6559H120.028L127.424 23.7913L128.032 22.7251Z" fill="#1D1D1B"/>
<path id="Vector_15" d="M145.222 21.3648C144.58 20.8126 143.847 20.3788 143.055 20.0835C141.493 19.5314 139.794 19.5059 138.217 20.0107C136.797 20.4753 135.564 21.386 134.7 22.6081C134.256 23.2328 133.912 23.9235 133.681 24.6551C133.437 25.4373 133.315 26.2526 133.318 27.0722C133.311 27.8985 133.439 28.7204 133.697 29.5051C134.148 30.8642 135.05 32.0275 136.252 32.8017C136.832 33.1734 137.463 33.458 138.125 33.6464C138.795 33.834 139.486 33.9287 140.181 33.928C140.759 33.9267 141.336 33.8642 141.9 33.7414C142.394 33.6321 142.878 33.4797 143.345 33.2858C143.725 33.132 144.095 32.9534 144.452 32.7511C144.767 32.5708 144.998 32.4347 145.162 32.2987C145.326 32.1626 145.411 32.112 145.411 32.1089L144.916 30.5618L144.657 30.7453C144.487 30.8623 144.256 31.0079 143.963 31.1787C143.67 31.3496 143.332 31.5267 142.97 31.7039C142.585 31.8775 142.189 32.0224 141.784 32.1373C140.886 32.3978 139.931 32.3757 139.046 32.0741C138.035 31.7419 137.152 31.1002 136.523 30.2391C136.186 29.7783 135.924 29.2668 135.747 28.7237C135.556 28.1224 135.46 27.4946 135.463 26.8634C135.462 26.2879 135.541 25.7151 135.697 25.1613C135.842 24.6173 136.063 24.0965 136.353 23.6142C136.634 23.1428 136.983 22.7163 137.39 22.3487C137.799 21.9906 138.268 21.7079 138.775 21.5135C139.292 21.3052 139.845 21.1978 140.402 21.1971C141.109 21.1922 141.808 21.3322 142.459 21.6084C143.1 21.8899 143.685 22.2866 144.184 22.779L145.222 21.3648Z" fill="#1D1D1B"/>
<path id="Vector_16" d="M151.126 25.7749V19.903H148.804L149.098 21.8266V33.6558H151.353L151.126 32.0898V27.4486H152.728L156.898 33.6558H159.468L154.507 26.5501L156.67 22.9529C156.858 22.6374 157.078 22.3426 157.327 22.0734C157.5 21.8788 157.706 21.7161 157.935 21.5925C158.108 21.4999 158.301 21.4511 158.497 21.4501C158.639 21.4501 158.771 21.4501 158.904 21.4501C159.017 21.4577 159.13 21.4746 159.241 21.5007L159.039 19.7638C158.917 19.7239 158.791 19.6953 158.664 19.6784C158.49 19.6506 158.313 19.6369 158.137 19.6373C157.772 19.6348 157.409 19.7047 157.071 19.8429C156.655 20.0198 156.277 20.2755 155.958 20.5959C155.524 21.0433 155.155 21.5491 154.86 22.0987L152.744 25.7749H151.126Z" fill="#1D1D1B"/>
<path id="Vector_17" d="M161.099 33.656H163.06L164.524 30.0556H170.046L171.466 33.6497H173.926L172.797 31.3496L168.198 19.6311L166.823 19.9032L161.099 33.656ZM167.116 23.687L167.388 22.8486L167.612 23.6649L169.482 28.4738H165.133L167.116 23.687Z" fill="#1D1D1B"/>
</g>
</g>
</g>
<defs>
<linearGradient id="paint0_linear_28_0" x1="195.054" y1="10.2" x2="178.934" y2="16.3707" gradientUnits="userSpaceOnUse">
<stop stop-color="#445DA7"/>
<stop offset="1" stop-color="#49B1E5"/>
</linearGradient>
<linearGradient id="paint1_linear_28_0" x1="23167.4" y1="58.6242" x2="19267.5" y2="58.6242" gradientUnits="userSpaceOnUse">
<stop stop-color="#445DA7"/>
<stop offset="1" stop-color="#49B1E5"/>
</linearGradient>
<linearGradient id="paint2_linear_28_0" x1="4234.96" y1="3724.5" x2="4234.96" y2="-169.919" gradientUnits="userSpaceOnUse">
<stop stop-color="#445DA7"/>
<stop offset="1" stop-color="#49B1E5"/>
</linearGradient>
<linearGradient id="paint3_linear_28_0" x1="202.122" y1="23.5542" x2="211.063" y2="34.9643" gradientUnits="userSpaceOnUse">
<stop offset="0.01" stop-color="#445DA7"/>
<stop offset="1" stop-color="#49B1E5"/>
</linearGradient>
<linearGradient id="paint4_linear_28_0" x1="10530.1" y1="1428.05" x2="10530.1" y2="730.365" gradientUnits="userSpaceOnUse">
<stop stop-color="#445DA7"/>
<stop offset="1" stop-color="#49B1E5"/>
</linearGradient>
<linearGradient id="paint5_linear_28_0" x1="7268.46" y1="-133.797" x2="7822.49" y2="833.148" gradientUnits="userSpaceOnUse">
<stop stop-color="#445DA7"/>
<stop offset="1" stop-color="#49B1E5"/>
</linearGradient>
<clipPath id="clip0_28_0">
<rect width="215" height="37" fill="white"/>
</clipPath>
</defs>
</svg>
